<?xml version="1.0" standalone="no"?><!DOCTYPE svg PUBLIC "-//W3C//DTD SVG 1.1//EN" "http://www.w3.org/Graphics/SVG/1.1/DTD/svg11.dtd"><svg t="1776087123807" class="icon" viewBox="0 0 1024 1024" version="1.1" xmlns="http://www.w3.org/2000/svg" p-id="6041" xmlns:xlink="http://www.w3.org/1999/xlink" width="200" height="200"><path d="M466.0224 936.704a16.1792 16.1792 0 0 1-16.384-0.5632c-34.7648-22.2208-68.5568-22.2208-103.2704 0m119.6544 0.512l-116.8896 3.7888-2.7648-4.3008m119.6544 0.512a16.0256 16.0256 0 0 0 8.3456-14.08v-23.808h5.12m-13.4656 37.888l346.112-43.008m-465.7664 42.496l2.7648 4.3008m-2.7648-4.3008l2.7648 4.3008m0 0c16.6912-10.7008 32.9216-15.872 48.8448-15.872 15.9744 0 32.1536 5.1712 48.896 15.872a21.4016 21.4016 0 0 0 21.6064 0.768 21.1968 21.1968 0 0 0 11.008-18.6368v-23.808m-130.3552 41.6768l480.768-236.3392m-17.8176 189.5424H479.488v5.12m332.5952-5.12a16.0768 16.0768 0 0 0 13.4656-24.9344m-13.4144 24.9344l13.4144-24.9344m-346.0608 30.0544h332.5952a21.1968 21.1968 0 0 0 17.7152-32.8704c-17.8176-27.136-26.5216-53.7088-26.5216-80.2816 0-26.624 8.7552-53.6064 26.624-81.5104m0 0h0.0512l-4.3008-2.816m4.3008 2.816c0.512-0.8704 0.768-1.6896 0.8704-1.9968m-5.1712-0.768a2.4576 2.4576 0 0 0 0.256-0.7168l0.2048-0.512m-0.4608 1.2288c-36.608 57.088-36.6592 111.8208-0.1024 167.424m0.1024-167.424l-0.1024 167.424m0.5632-168.6528l4.5568 2.3552a9.728 9.728 0 0 0 0.1536-0.3584m-4.7104-2.048a15.0016 15.0016 0 0 0 1.1776-2.9696l3.5328 5.0176m-4.7104-2.048l4.608 2.3552a4.7616 4.7616 0 0 0 0.1536-0.512v0.2048h-0.0512M316.4672 798.72h-14.1312v-5.12l14.1312 5.12z m0 0v55.9104a13.8752 13.8752 0 0 1-2.3552-0.6144l-0.3072-0.1024-0.2048-0.0512c-1.3824-0.4096-3.072-0.9728-5.0688-1.3824a27.648 27.648 0 0 0-6.9632-2.9184 38.2976 38.2976 0 0 1-7.936-5.12l-3.072 4.096-3.2768-2.4064 29.184-47.4112z m-42.2912 19.1488c3.584 10.6496 7.8336 17.0496 15.872 23.9616l0.1536 0.1536c1.0752 0.768 2.2528 1.536 3.4304 2.5088l-19.456-26.624z m0 0v-0.0512h-0.2048c0-0.1024 0-0.4608-0.1536-0.8704a5.9904 5.9904 0 0 1 0.3584 0.9216z m217.9072-24.2688v5.12h-12.5952v57.6512h296.8064c-20.8384-47.0016-20.5824-94.8736 0.4608-142.5408H311.9616a9.3184 9.3184 0 0 1-1.8432-0.2048 100.096 100.096 0 0 0-9.6768 6.9632l-0.0512 0.0512-0.7168 0.5632a233.1136 233.1136 0 0 1-8.9088 6.656 88.9856 88.9856 0 0 0-20.3264 40.96l31.8464-7.3728v-5.12H492.032v5.12a16.128 16.128 0 0 1 15.0016 22.272 16.0768 16.0768 0 0 1-14.9504 9.8816z m0 0h-12.5952 12.5952z m340.8896-98.8672c0.1024-0.256 0.3584-1.0752 0.3584-2.0992V118.4768a21.1968 21.1968 0 0 0-21.248-21.1968H342.528c-36.1984 0-65.024 9.984-84.736 29.696-19.7632 19.8144-29.7472 48.64-29.7472 84.7872v552.448c-1.536 6.2976-3.2256 13.6704-3.2256 21.6576 0 15.5648 3.1232 30.8224 9.216 45.4656l0.0512 0.3072 0.1024 0.1536v0.0512l0.0512 0.2048 0.3584 0.8192 0.0512 0.2048c5.2224 14.7968 12.4928 26.2144 23.2448 36.608 0.9216 1.8432 2.1504 3.584 3.584 5.12h0.0512c6.5024 6.5024 14.7456 10.9568 23.6544 13.824l1.1264 0.5632h0.0512a5.9392 5.9392 0 0 0 1.024 0.3072h0.0512c1.024 0.7168 2.2528 1.4336 3.6864 2.2016a19.2512 19.2512 0 0 0 8.4992 2.2016l0.7168 0.256 0.9216 0.3072h0.1024l0.3584 0.1024c3.3792 1.024 8.448 2.56 14.7456 2.56v25.4464h5.12l511.3856-227.84z m-559.4624-6.912l-3.072 2.4064V211.7632c0-26.0608 5.8368-43.7248 17.1008-54.9888 11.264-11.264 28.928-17.1008 54.9888-17.1008h448.3584v531.7632H311.9616a12.8512 12.8512 0 0 0-3.072 0.3584l-0.6144 0.2048a20.992 20.992 0 0 0-13.824 1.6384c-7.8336 3.9424-14.336 8.96-20.1216 13.568l-0.1024 0.0512-0.7168 0.5632z m200.8576 168.5504V798.72v57.6512z m304.2816 5.12H479.488h299.1616z m3.6864-147.6608c-21.6576 47.7696-21.9136 95.488-0.4096 142.5408l0.4096-142.5408zM437.0944 798.72v89.9584a117.0944 117.0944 0 0 0-78.1824 0V798.72h78.1824z" p-id="6042" fill="#2c2c2c"></path><path d="M395.6736 214.9888a21.1968 21.1968 0 0 0-42.3936 0v408.4736a21.1968 21.1968 0 1 0 42.3936 0V215.04z" p-id="6043" fill="#2c2c2c"></path></svg>