<?xml version="1.0" standalone="no"?><!DOCTYPE svg PUBLIC "-//W3C//DTD SVG 1.1//EN" "http://www.w3.org/Graphics/SVG/1.1/DTD/svg11.dtd"><svg t="1776087091462" class="icon" viewBox="0 0 1024 1024" version="1.1" xmlns="http://www.w3.org/2000/svg" p-id="4435" xmlns:xlink="http://www.w3.org/1999/xlink" width="200" height="200"><path d="M620.2 796.8H373.6c-2.3 0-4.3-1.9-4.3-4.3V546c0-2.3 1.9-4.3 4.3-4.3h246.6c2.3 0 4.3 1.9 4.3 4.3v246.6c0 2.3-1.9 4.2-4.3 4.2z m-242.4-8.5H616V550.2H377.8v238.1z" fill="#2c2c2c" p-id="4436"></path><path d="M620.2 550.2H373.6c-2.1 0-3.8-1.5-4.2-3.5-0.4-2 0.8-4 2.7-4.7l54.5-20c0.5-0.2 1-0.3 1.5-0.3h246.6c2.1 0 3.8 1.5 4.2 3.5s-0.8 4-2.7 4.7l-54.5 20c-0.5 0.2-1 0.3-1.5 0.3z m-222.7-8.5h221.9l31.3-11.5H428.9l-31.4 11.5z" fill="#2c2c2c" p-id="4437"></path><path d="M373.6 718.6H151c-2.3 0-4.3-1.9-4.3-4.3V467.7c0-2.3 1.9-4.3 4.3-4.3h246.6c2.3 0 4.3 1.9 4.3 4.3v69.5c0 2.3-1.9 4.3-4.3 4.3s-4.3-1.9-4.3-4.3V472H155.2v238.1h218.4c2.3 0 4.3 1.9 4.3 4.3s-2 4.2-4.3 4.2zM674.7 530.2H428.1c-2.3 0-4.3-1.9-4.3-4.3V279.3c0-2.3 1.9-4.3 4.3-4.3h246.6c2.3 0 4.3 1.9 4.3 4.3V526c0 2.3-1.9 4.2-4.3 4.2z m-242.3-8.5h238.1V283.6H432.4v238.1z" fill="#2c2c2c" p-id="4438"></path><path d="M247.6 625.2l-10.2 30.2h-27.8L254 524.8h35.5l46.3 130.6h-29.7l-10.7-30.2h-47.8z m41.7-23.2c-9.3-27.6-15.2-45.2-18.3-56.9h-0.2c-3.2 12.9-9.7 33.4-17.2 56.9h35.7zM443.7 607.7h57c31.5 0 43.5 16.4 43.5 33.4 0 14.7-7.8 24.3-16.6 28.3 8.8 3.3 20.4 12.6 20.4 29.8 0 22.3-17.5 39.1-45.3 39.1h-59V607.7z m53.8 51.5c13.4 0 19-6 19-15.2 0-9.6-7.3-14.5-18.1-14.5h-26.9v29.7h26z m-26.1 57.3h25.5c15.3 0 22.2-6.4 22.2-18.2 0-10.5-6.8-17.2-22.3-17.2h-25.3v35.4zM609.1 427.5c-5.3 24.4-23.6 42.1-56.3 42.1-41.4 0-61-29.3-61-66.4 0-35.8 20.2-67.9 62.3-67.9 34.8 0 51.6 20.4 54.8 42.2h-28.2c-2.7-10.1-9.7-20.1-27.5-20.1-23.3 0-32.3 20.9-32.3 44.7 0 22.1 7.8 45.3 33 45.3 18.4 0 24.2-12.3 26.7-20h28.5zM674.7 530.2c-0.9 0-1.7-0.3-2.4-0.8-1.1-0.8-1.8-2.1-1.8-3.5V279.3c0-1.8 1.1-3.4 2.8-4L807.8 227c1.3-0.5 2.8-0.3 3.9 0.5s1.8 2.1 1.8 3.5l-1.2 245.7c0 1.8-1.1 3.4-2.8 4l-133.3 49.2c-0.5 0.2-1 0.3-1.5 0.3z m4.3-247.9v237.5l124.8-46.1 1.1-236.7L679 282.3z" fill="#2c2c2c" p-id="4439"></path><path d="M674.7 283.6H428.1c-2.1 0-3.8-1.5-4.2-3.5s0.8-4 2.8-4.7L565.9 227c0.4-0.2 0.9-0.2 1.4-0.2h241.9c2.1 0 3.8 1.5 4.2 3.5 0.4 2-0.8 4-2.8 4.7l-134.5 48.3c-0.4 0.2-0.9 0.3-1.4 0.3z m-221.4-8.5H674l110.8-39.8H568l-114.7 39.8zM620.2 796.8c-0.9 0-1.8-0.3-2.5-0.8-1.1-0.8-1.8-2.1-1.8-3.5V546c0-1.8 1.1-3.4 2.8-4L760 490c1.3-0.5 2.8-0.3 3.9 0.5s1.8 2.1 1.8 3.5v251.4c0 1.8-1.2 3.5-2.9 4l-141.3 47.3c-0.4 0-0.8 0.1-1.3 0.1z m4.3-247.9v237.7l132.8-44.4V500l-132.8 48.9zM397.6 472H151c-2.1 0-3.8-1.5-4.2-3.5-0.4-2 0.8-4 2.8-4.7l139.8-49.5c0.5-0.2 0.9-0.2 1.4-0.2h137.3c2.3 0 4.3 1.9 4.3 4.3v40.3c0 1.9-1.2 3.5-3 4.1l-30.5 9.2c-0.5-0.1-0.9 0-1.3 0z m-221.9-8.5h221.2l26.9-8.1v-32.9H291.5l-115.8 41z" fill="#2c2c2c" p-id="4440"></path></svg>