<?xml version="1.0" standalone="no"?><!DOCTYPE svg PUBLIC "-//W3C//DTD SVG 1.1//EN" "http://www.w3.org/Graphics/SVG/1.1/DTD/svg11.dtd"><svg t="1776089401877" class="icon" viewBox="0 0 1024 1024" version="1.1" xmlns="http://www.w3.org/2000/svg" p-id="7052" xmlns:xlink="http://www.w3.org/1999/xlink" width="200" height="200"><path d="M966.4 403.2c-16-41.6-41.6-76.8-73.6-108.8-64-64-150.4-99.2-240-99.2H275.2v-96c0-12.8-16-22.4-28.8-12.8L44.8 249.6c-6.4 6.4-6.4 19.2 0 25.6l201.6 163.2c9.6 9.6 28.8 0 28.8-12.8v-96h377.6c112 0 204.8 92.8 204.8 204.8 0 112-92.8 204.8-204.8 204.8H291.2c-9.6 0-16 6.4-16 16v102.4c0 9.6 6.4 16 16 16h361.6c89.6 0 176-35.2 240-99.2s99.2-150.4 99.2-240c0-44.8-9.6-89.6-25.6-131.2z" fill="#2c2c2c" p-id="7053"></path></svg>